<svg width="17" height="23" viewBox="0 0 17 23" fill="none" xmlns="http://www.w3.org/2000/svg">
<path d="M8.4 19.21C8.4 20.05 8.14 20.73 7.62 21.25C7.1 21.75 6.42 22 5.58 22H3.42C2.58 22 1.9 21.75 1.38 21.25C0.86 20.73 0.6 20.05 0.6 19.21V3.79C0.6 2.95 0.86 2.28 1.38 1.78C1.9 1.26 2.58 0.999999 3.42 0.999999H5.58C6.42 0.999999 7.1 1.26 7.62 1.78C8.14 2.28 8.4 2.95 8.4 3.79V8.59H5.55V3.94C5.55 3.84 5.5 3.79 5.4 3.79H3.6C3.5 3.79 3.45 3.84 3.45 3.94V19.06C3.45 19.16 3.5 19.21 3.6 19.21H5.4C5.5 19.21 5.55 19.16 5.55 19.06V12.85H4.38L4.62 10.06H8.4V19.21ZM12.5906 16V19.18C12.5906 19.28 12.6406 19.33 12.7406 19.33H13.9406C14.0406 19.33 14.0906 19.28 14.0906 19.18V13.78L11.7206 12.73C11.5406 12.67 11.2906 12.57 10.9706 12.43C10.6506 12.27 10.3606 12.04 10.1006 11.74C9.86063 11.44 9.74063 11.03 9.74063 10.51V3.67C9.74063 2.83 10.0006 2.16 10.5206 1.66C11.0406 1.14 11.7206 0.879998 12.5606 0.879998H14.1206C14.9606 0.879998 15.6406 1.14 16.1606 1.66C16.6806 2.16 16.9406 2.83 16.9406 3.67V8.11L14.0906 7.87V3.82C14.0906 3.72 14.0406 3.67 13.9406 3.67H12.7406C12.6406 3.67 12.5906 3.72 12.5906 3.82V10.09L14.9606 11.14C15.1406 11.22 15.3906 11.33 15.7106 11.47C16.0306 11.61 16.3106 11.83 16.5506 12.13C16.8106 12.43 16.9406 12.84 16.9406 13.36V19.33C16.9406 20.17 16.6806 20.85 16.1606 21.37C15.6406 21.87 14.9606 22.12 14.1206 22.12H12.5606C11.7206 22.12 11.0406 21.87 10.5206 21.37C10.0006 20.85 9.74063 20.17 9.74063 19.33V16H12.5906Z" fill="url(#paint0_linear_21_6)"/>
<defs>
<linearGradient id="paint0_linear_21_6" x1="9" y1="0" x2="9" y2="29" gradientUnits="userSpaceOnUse">
<stop stop-color="#C6B6B6"/>
<stop offset="1" stop-color="#302E2E"/>
</linearGradient>
</defs>
</svg>
