<svg width="45" height="54" viewBox="0 0 45 54" fill="none" xmlns="http://www.w3.org/2000/svg">
<rect x="0.25" y="0.25" width="44.5" height="44.5" rx="4.75" fill="#302E2E" stroke="#C6B6B6" stroke-width="0.5"/>
<path d="M26 35.35C26 36.75 25.5667 37.8833 24.7 38.75C23.8333 39.5833 22.7 40 21.3 40H17.7C16.3 40 15.1667 39.5833 14.3 38.75C13.4333 37.8833 13 36.75 13 35.35V9.65C13 8.25 13.4333 7.13333 14.3 6.3C15.1667 5.43333 16.3 5 17.7 5H21.3C22.7 5 23.8333 5.43333 24.7 6.3C25.5667 7.13333 26 8.25 26 9.65V17.65H21.25V9.9C21.25 9.73333 21.1667 9.65 21 9.65H18C17.8333 9.65 17.75 9.73333 17.75 9.9V35.1C17.75 35.2667 17.8333 35.35 18 35.35H21C21.1667 35.35 21.25 35.2667 21.25 35.1V24.75H19.3L19.7 20.1H26V35.35ZM32.9844 30V35.3C32.9844 35.4667 33.0677 35.55 33.2344 35.55H35.2344C35.401 35.55 35.4844 35.4667 35.4844 35.3V26.3L31.5344 24.55C31.2344 24.45 30.8177 24.2833 30.2844 24.05C29.751 23.7833 29.2677 23.4 28.8344 22.9C28.4344 22.4 28.2344 21.7167 28.2344 20.85V9.45C28.2344 8.05 28.6677 6.93333 29.5344 6.1C30.401 5.23333 31.5344 4.8 32.9344 4.8H35.5344C36.9344 4.8 38.0677 5.23333 38.9344 6.1C39.801 6.93333 40.2344 8.05 40.2344 9.45V16.85L35.4844 16.45V9.7C35.4844 9.53333 35.401 9.45 35.2344 9.45H33.2344C33.0677 9.45 32.9844 9.53333 32.9844 9.7V20.15L36.9344 21.9C37.2344 22.0333 37.651 22.2167 38.1844 22.45C38.7177 22.6833 39.1844 23.05 39.5844 23.55C40.0177 24.05 40.2344 24.7333 40.2344 25.6V35.55C40.2344 36.95 39.801 38.0833 38.9344 38.95C38.0677 39.7833 36.9344 40.2 35.5344 40.2H32.9344C31.5344 40.2 30.401 39.7833 29.5344 38.95C28.6677 38.0833 28.2344 36.95 28.2344 35.55V30H32.9844Z" fill="url(#paint0_linear_21_12)"/>
<defs>
<linearGradient id="paint0_linear_21_12" x1="28" y1="11" x2="28" y2="54" gradientUnits="userSpaceOnUse">
<stop stop-color="#C6B6B6"/>
<stop offset="1" stop-color="#302E2E"/>
</linearGradient>
</defs>
</svg>
