<svg width="86" height="55" viewBox="0 0 86 55" fill="none" xmlns="http://www.w3.org/2000/svg">
<rect x="0.2" y="0.2" width="85.6" height="52.6" rx="4.8" fill="#302E2E" stroke="#F2EDA0" stroke-width="0.4"/>
<g filter="url(#filter0_d_17_61)">
<path d="M6 16.1753L25.5 4L38.5 13.2364L28.5 43.8846L11 46.8235L6 16.1753Z" fill="#302E2E"/>
<path d="M25.4875 4.42044L38.0874 13.3726L28.233 43.5746L11.2888 46.4201L6.38294 16.3488L25.4875 4.42044Z" stroke="#A2845E" stroke-width="0.7"/>
</g>
<path d="M20.4 35.8052C20.4 36.6452 20.14 37.3252 19.62 37.8452C19.1 38.3452 18.42 38.5952 17.58 38.5952H15.42C14.58 38.5952 13.9 38.3452 13.38 37.8452C12.86 37.3252 12.6 36.6452 12.6 35.8052V20.3852C12.6 19.5452 12.86 18.8752 13.38 18.3752C13.9 17.8552 14.58 17.5952 15.42 17.5952H17.58C18.42 17.5952 19.1 17.8552 19.62 18.3752C20.14 18.8752 20.4 19.5452 20.4 20.3852V25.1852H17.55V20.5352C17.55 20.4352 17.5 20.3852 17.4 20.3852H15.6C15.5 20.3852 15.45 20.4352 15.45 20.5352V35.6552C15.45 35.7552 15.5 35.8052 15.6 35.8052H17.4C17.5 35.8052 17.55 35.7552 17.55 35.6552V29.4452H16.38L16.62 26.6552H20.4V35.8052ZM24.5906 32.5952V35.7752C24.5906 35.8752 24.6406 35.9252 24.7406 35.9252H25.9406C26.0406 35.9252 26.0906 35.8752 26.0906 35.7752V30.3752L23.7206 29.3252C23.5406 29.2652 23.2906 29.1652 22.9706 29.0252C22.6506 28.8652 22.3606 28.6352 22.1006 28.3352C21.8606 28.0352 21.7406 27.6252 21.7406 27.1052V20.2652C21.7406 19.4252 22.0006 18.7552 22.5206 18.2552C23.0406 17.7352 23.7206 17.4752 24.5606 17.4752H26.1206C26.9606 17.4752 27.6406 17.7352 28.1606 18.2552C28.6806 18.7552 28.9406 19.4252 28.9406 20.2652V24.7052L26.0906 24.4652V20.4152C26.0906 20.3152 26.0406 20.2652 25.9406 20.2652H24.7406C24.6406 20.2652 24.5906 20.3152 24.5906 20.4152V26.6852L26.9606 27.7352C27.1406 27.8152 27.3906 27.9252 27.7106 28.0652C28.0306 28.2052 28.3106 28.4252 28.5506 28.7252C28.8106 29.0252 28.9406 29.4352 28.9406 29.9552V35.9252C28.9406 36.7652 28.6806 37.4452 28.1606 37.9652C27.6406 38.4652 26.9606 38.7152 26.1206 38.7152H24.5606C23.7206 38.7152 23.0406 38.4652 22.5206 37.9652C22.0006 37.4452 21.7406 36.7652 21.7406 35.9252V32.5952H24.5906Z" fill="url(#paint0_linear_17_61)"/>
<path d="M37.6 31.33V21.67C37.6 20.83 37.86 20.16 38.38 19.66C38.9 19.14 39.58 18.88 40.42 18.88H42.58C43.42 18.88 44.1 19.14 44.62 19.66C45.14 20.16 45.4 20.83 45.4 21.67V25.63L42.55 25.33V21.82C42.55 21.72 42.5 21.67 42.4 21.67H40.6C40.5 21.67 40.45 21.72 40.45 21.82V31.18C40.45 31.28 40.5 31.33 40.6 31.33H42.4C42.5 31.33 42.55 31.29 42.55 31.21V27.73H45.4V31.33C45.4 32.17 45.14 32.85 44.62 33.37C44.1 33.87 43.42 34.12 42.58 34.12H40.42C39.58 34.12 38.9 33.87 38.38 33.37C37.86 32.85 37.6 32.17 37.6 31.33ZM46.8677 34V15.79H46.1477L46.4477 13H49.7177V20.17L50.4677 19H51.2777C52.1977 19 52.9277 19.26 53.4677 19.78C54.0277 20.3 54.3077 20.97 54.3077 21.79V31.21H55.0277L54.7277 34H51.4577V21.94C51.4577 21.84 51.4077 21.79 51.3077 21.79H49.7177V34H46.8677ZM60.4504 21.82C60.4504 21.72 60.4004 21.67 60.3004 21.67H58.5004C58.4004 21.67 58.3504 21.72 58.3504 21.82V31.18C58.3504 31.28 58.4004 31.33 58.5004 31.33H60.3004C60.4004 31.33 60.4504 31.29 60.4504 31.21V21.82ZM55.5004 31.33V21.67C55.5004 20.83 55.7604 20.16 56.2804 19.66C56.8004 19.14 57.4804 18.88 58.3204 18.88H60.4804C61.3204 18.88 62.0004 19.14 62.5204 19.66C63.0404 20.16 63.3004 20.83 63.3004 21.67V31.33C63.3004 32.17 63.0404 32.85 62.5204 33.37C62.0004 33.87 61.3204 34.12 60.4804 34.12H58.3204C57.4804 34.12 56.8004 33.87 56.2804 33.37C55.7604 32.85 55.5004 32.17 55.5004 31.33ZM69.298 21.82C69.298 21.72 69.248 21.67 69.148 21.67H67.348C67.248 21.67 67.198 21.72 67.198 21.82V31.18C67.198 31.28 67.248 31.33 67.348 31.33H69.148C69.248 31.33 69.298 31.29 69.298 31.21V21.82ZM64.348 31.33V21.67C64.348 20.83 64.608 20.16 65.128 19.66C65.648 19.14 66.328 18.88 67.168 18.88H69.328C70.168 18.88 70.848 19.14 71.368 19.66C71.888 20.16 72.148 20.83 72.148 21.67V31.33C72.148 32.17 71.888 32.85 71.368 33.37C70.848 33.87 70.168 34.12 69.328 34.12H67.168C66.328 34.12 65.648 33.87 65.128 33.37C64.608 32.85 64.348 32.17 64.348 31.33ZM76.3457 13L76.3757 31.21H77.1257L77.4257 34H73.5257L73.4957 15.79H72.8957L73.1957 13H76.3457Z" fill="url(#paint1_linear_17_61)"/>
<path d="M36.5 35C37.7 35 65.3333 35 79 35" stroke="#A2845E" stroke-width="0.5"/>
<path d="M36.5 37C37.7 37 65.3333 37 79 37" stroke="#A2845E" stroke-width="0.5"/>
<path d="M36.5 39C37.7 39 65.3333 39 79 39" stroke="#A2845E" stroke-width="0.6"/>
<path d="M36.5 41C37.7 41 65.3333 41 79 41" stroke="#A2845E" stroke-width="0.7"/>
<path d="M36.5 43C37.7 43 65.3333 43 79 43" stroke="#A2845E" stroke-width="0.7"/>
<path d="M36.5 45C37.7 45 65.3333 45 79 45" stroke="#A2845E" stroke-width="0.7"/>
<defs>
<filter id="filter0_d_17_61" x="2" y="4" width="40.5" height="50.8235" filterUnits="userSpaceOnUse" color-interpolation-filters="sRGB">
<feFlood flood-opacity="0" result="BackgroundImageFix"/>
<feColorMatrix in="SourceAlpha" type="matrix" values="0 0 0 0 0 0 0 0 0 0 0 0 0 0 0 0 0 0 127 0" result="hardAlpha"/>
<feOffset dy="4"/>
<feGaussianBlur stdDeviation="2"/>
<feComposite in2="hardAlpha" operator="out"/>
<feColorMatrix type="matrix" values="0 0 0 0 0 0 0 0 0 0 0 0 0 0 0 0 0 0 0.25 0"/>
<feBlend mode="normal" in2="BackgroundImageFix" result="effect1_dropShadow_17_61"/>
<feBlend mode="normal" in="SourceGraphic" in2="effect1_dropShadow_17_61" result="shape"/>
</filter>
<linearGradient id="paint0_linear_17_61" x1="21" y1="16.5952" x2="21" y2="35.068" gradientUnits="userSpaceOnUse">
<stop stop-color="#F2E85E"/>
<stop offset="1" stop-color="#8C8636"/>
</linearGradient>
<linearGradient id="paint1_linear_17_61" x1="57.5" y1="12" x2="57.5" y2="34" gradientUnits="userSpaceOnUse">
<stop stop-color="#C8C7BD"/>
<stop offset="1" stop-color="#8C8636"/>
</linearGradient>
</defs>
</svg>
