<svg width="41" height="51" viewBox="0 0 41 51" fill="none" xmlns="http://www.w3.org/2000/svg">
<g filter="url(#filter0_d_18_5)">
<path d="M4 12.1753L23.5 0L36.5 9.23644L26.5 39.8846L9 42.8235L4 12.1753Z" fill="#302E2E"/>
<path d="M23.4875 0.420444L36.0874 9.37264L26.233 39.5746L9.28882 42.4201L4.38294 12.3488L23.4875 0.420444Z" stroke="#A2845E" stroke-width="0.7"/>
</g>
<path d="M18.4 31.8052C18.4 32.6452 18.14 33.3252 17.62 33.8452C17.1 34.3452 16.42 34.5952 15.58 34.5952H13.42C12.58 34.5952 11.9 34.3452 11.38 33.8452C10.86 33.3252 10.6 32.6452 10.6 31.8052V16.3852C10.6 15.5452 10.86 14.8752 11.38 14.3752C11.9 13.8552 12.58 13.5952 13.42 13.5952H15.58C16.42 13.5952 17.1 13.8552 17.62 14.3752C18.14 14.8752 18.4 15.5452 18.4 16.3852V21.1852H15.55V16.5352C15.55 16.4352 15.5 16.3852 15.4 16.3852H13.6C13.5 16.3852 13.45 16.4352 13.45 16.5352V31.6552C13.45 31.7552 13.5 31.8052 13.6 31.8052H15.4C15.5 31.8052 15.55 31.7552 15.55 31.6552V25.4452H14.38L14.62 22.6552H18.4V31.8052ZM22.5906 28.5952V31.7752C22.5906 31.8752 22.6406 31.9252 22.7406 31.9252H23.9406C24.0406 31.9252 24.0906 31.8752 24.0906 31.7752V26.3752L21.7206 25.3252C21.5406 25.2652 21.2906 25.1652 20.9706 25.0252C20.6506 24.8652 20.3606 24.6352 20.1006 24.3352C19.8606 24.0352 19.7406 23.6252 19.7406 23.1052V16.2652C19.7406 15.4252 20.0006 14.7552 20.5206 14.2552C21.0406 13.7352 21.7206 13.4752 22.5606 13.4752H24.1206C24.9606 13.4752 25.6406 13.7352 26.1606 14.2552C26.6806 14.7552 26.9406 15.4252 26.9406 16.2652V20.7052L24.0906 20.4652V16.4152C24.0906 16.3152 24.0406 16.2652 23.9406 16.2652H22.7406C22.6406 16.2652 22.5906 16.3152 22.5906 16.4152V22.6852L24.9606 23.7352C25.1406 23.8152 25.3906 23.9252 25.7106 24.0652C26.0306 24.2052 26.3106 24.4252 26.5506 24.7252C26.8106 25.0252 26.9406 25.4352 26.9406 25.9552V31.9252C26.9406 32.7652 26.6806 33.4452 26.1606 33.9652C25.6406 34.4652 24.9606 34.7152 24.1206 34.7152H22.5606C21.7206 34.7152 21.0406 34.4652 20.5206 33.9652C20.0006 33.4452 19.7406 32.7652 19.7406 31.9252V28.5952H22.5906Z" fill="url(#paint0_linear_18_5)"/>
<defs>
<filter id="filter0_d_18_5" x="0" y="0" width="40.5" height="50.8235" filterUnits="userSpaceOnUse" color-interpolation-filters="sRGB">
<feFlood flood-opacity="0" result="BackgroundImageFix"/>
<feColorMatrix in="SourceAlpha" type="matrix" values="0 0 0 0 0 0 0 0 0 0 0 0 0 0 0 0 0 0 127 0" result="hardAlpha"/>
<feOffset dy="4"/>
<feGaussianBlur stdDeviation="2"/>
<feComposite in2="hardAlpha" operator="out"/>
<feColorMatrix type="matrix" values="0 0 0 0 0 0 0 0 0 0 0 0 0 0 0 0 0 0 0.25 0"/>
<feBlend mode="normal" in2="BackgroundImageFix" result="effect1_dropShadow_18_5"/>
<feBlend mode="normal" in="SourceGraphic" in2="effect1_dropShadow_18_5" result="shape"/>
</filter>
<linearGradient id="paint0_linear_18_5" x1="19" y1="12.5952" x2="19" y2="31.068" gradientUnits="userSpaceOnUse">
<stop stop-color="#F2E85E"/>
<stop offset="1" stop-color="#8C8636"/>
</linearGradient>
</defs>
</svg>
